<svg xmlns="http://www.w3.org/2000/svg" stroke='#fff' width="40" height="39" id="twitter"><path d="M32.954 38.651H6.757c-3.459 0-6.273-2.808-6.273-6.26V6.26C.484 2.808 3.298 0 6.757 0h26.197c3.458 0 6.272 2.808 6.272 6.26v26.132c0 3.452-2.814 6.259-6.272 6.259Zm-2.995-27.025A5.123 5.123 0 0 0 26.217 10c-2.86 0-5.178 2.357-5.178 5.264 0 .38.04.75.115 1.107-4.275-.27-8.014-2.555-10.308-5.932a8.68 8.68 0 0 0-.215 1.926c0 2.162.793 4.137 2.099 5.639a8.241 8.241 0 0 1-2.546-.99 8.513 8.513 0 0 0 4.106 5.3 8.339 8.339 0 0 1-2.266-.077 8.404 8.404 0 0 0 4.687 3.488 8.264 8.264 0 0 1-7.227 1.854 13.345 13.345 0 0 0 7.924 2.6c7.135 0 12.983-5.605 13.516-12.72a5.318 5.318 0 0 0 .43-2.859 3.24 3.24 0 0 0 2.025-2.217c-.675.5-1.474.839-2.34.96a5.271 5.271 0 0 0-.098-.236 5.278 5.278 0 0 0 1.88-2.612 5.086 5.086 0 0 1-2.862 1.131Z"></path></svg>