<?xml version="1.0" encoding="utf-8" ?>
<svg xmlns="http://www.w3.org/2000/svg" xmlns:xlink="http://www.w3.org/1999/xlink" width="349" height="349">
	<path transform="matrix(0.34082 0 0 0.34082 -3.05176e-05 0)" d="M-0 -0L1024 0L1024 1024L-0 1024L0 -0Z"/>
	<path fill="#02B6CE" transform="matrix(0.34082 0 0 0.34082 -3.05176e-05 0)" d="M561.515 744.75C562.768 744.375 564.414 744.124 565.596 744.75L565.75 799.232L565.125 799.497C563.904 799.784 562.438 799.719 561.464 799L561.515 744.75Z"/>
	<path fill="#02B6CE" transform="matrix(0.34082 0 0 0.34082 -3.05176e-05 0)" d="M265.594 744.75L265.944 744.681C267.654 744.523 269.07 744.216 270.452 745.25L270.557 781.606C270.571 787.816 271.144 794.607 270.296 800.75C268.961 801.007 267.371 800.877 266 800.89L265.404 800.25L265.357 763.695C265.347 757.513 264.853 750.874 265.594 744.75Z"/>
	<path fill="#02B6CE" transform="matrix(0.34082 0 0 0.34082 -3.05176e-05 0)" d="M627.946 744.75C629.251 744.47 630.666 744.586 632 744.582C632.2 744.805 632.483 744.975 632.6 745.25C632.748 745.598 632.599 747.264 632.599 747.726L632.589 755.376L632.535 795.415L651.896 795.383C655.609 795.38 659.574 795.077 663.25 795.604C663.616 796.963 663.44 798.041 663.25 799.402C659.791 799.985 655.718 799.576 652.166 799.579L627.944 799.588L627.778 764.282C627.713 758.071 626.778 750.76 627.946 744.75Z"/>
	<path fill="#02B6CE" transform="matrix(0.34082 0 0 0.34082 -3.05176e-05 0)" d="M734.592 743.61C740.678 743.267 745.603 744.829 750.28 748.75C750.139 750.421 749.212 751.435 748.25 752.728C747.273 752.461 747.636 752.665 746.833 752.015C743.277 749.134 740.461 747.813 735.75 748.014C732.427 748.156 729.343 749.494 727.144 752.014C725.704 753.665 724.857 755.834 725.075 758.055C726.01 767.558 739.256 768.268 745.418 773.294C748.742 776.006 751.307 779.747 751.671 784.105C752.033 788.438 751.075 792.004 748.109 795.254C743.979 799.779 739.75 800.537 733.937 800.735C727.465 800.15 723.265 797.386 718.691 793.042L721.65 788.117C723.174 790.326 724.707 792.093 726.958 793.594C730.109 795.695 734.075 796.689 737.828 795.899C741.094 795.211 744.129 793.324 745.866 790.43C747.319 788.008 747.258 785.08 746.458 782.451C744.466 775.909 734.581 773.518 729.138 770.568C725.991 768.863 721.618 764.989 720.784 761.361C720.07 758.255 720.193 753.774 721.899 751.031C724.684 746.55 729.705 744.671 734.592 743.61Z"/>
	<path fill="#02B6CE" transform="matrix(0.34082 0 0 0.34082 -3.05176e-05 0)" d="M673.621 745.052C678.385 745.043 706.761 744.23 708.856 745.503C708.917 747.055 709.198 747.671 708.25 748.945L677.924 748.861L677.958 769.102L697.904 769.214C700.139 769.232 703.961 768.72 705.945 769.75C705.976 771.065 706.238 771.892 705.5 773.025L679.25 773.164C678.36 773.385 678.827 773.212 677.876 773.75L677.931 795.287L701.077 795.226C702.988 795.228 707.467 794.705 708.974 795.75L708.955 799C707.438 800.219 678.099 799.655 673.684 799.684L673.621 745.052Z"/>
	<path fill="#02B6CE" transform="matrix(0.34082 0 0 0.34082 -3.05176e-05 0)" d="M461.238 743.75C462.56 743.331 464.114 743.464 465.5 743.429C467.523 745.99 465.283 777.98 466.514 784.75C467.117 788.064 469.743 791.474 472.511 793.294C476.397 795.849 481.762 796.372 486.252 795.281C499.632 792.031 498.477 780.023 498.397 769.224L498.26 750.504C498.246 748.576 497.735 745.239 498.75 743.573C500.302 743.534 502.037 743.175 503.342 744.028L503.42 746.875L503.38 770.046C503.363 774.555 503.621 779.284 502.956 783.75C502.167 789.046 499.163 793.961 494.75 797.003C489.806 800.412 483.026 801.967 477.09 800.735L476.5 800.604C471.73 799.644 468.177 797.175 465.25 793.307C463.57 791.087 462.211 788.293 461.614 785.568C460.42 780.124 461.1 773.009 461.062 767.419C461.008 759.713 460.225 751.33 461.238 743.75Z"/>
	<path fill="#02B6CE" transform="matrix(0.34082 0 0 0.34082 -3.05176e-05 0)" d="M282.874 744.75L285.25 744.681C285.691 744.732 286.859 745.033 287.189 745.25C288.786 746.299 290.682 749.133 291.992 750.647L305.532 766.38L323.799 745.071C324.606 744.164 326.533 744.427 327.75 744.353C327.949 744.782 328.069 744.979 328.139 745.5C328.579 748.79 328.187 800.039 328.09 800.25C327.967 800.518 327.697 800.69 327.5 800.911C325.941 800.929 324.464 801.347 323.25 800.315L323.518 760.494L323.543 753.475L305.645 774.768L287.543 754.447L287.368 800.25C285.991 801.129 284.537 800.733 282.926 800.676L282.686 800.343C281.996 799.011 281.944 747.593 282.874 744.75Z"/>
	<path fill="#02B6CE" transform="matrix(0.34082 0 0 0.34082 -3.05176e-05 0)" d="M401.82 743.25L405 743.01C407.357 743.249 423.204 763.339 425.725 766.615C430.031 762.162 433.97 757.11 437.725 752.189C440.016 749.185 442.171 745.797 444.977 743.25C446.579 743.151 447.939 743.096 449.513 743.441C450.17 744.727 449.939 746.409 449.941 747.832L449.957 758.352C449.98 772.107 450.569 786.15 449.833 799.874C448.519 800.575 446.931 800.202 445.5 800.078C444.314 798.024 445.04 791.511 445.045 788.92L445.122 755.375L445.301 750.603L425.773 774.112L406.573 750.122L406.497 788.894L406.481 796.601C406.48 797.365 406.685 799.074 406.475 799.75C406.369 800.092 405.992 800.279 405.75 800.544L402.25 800.571L401.501 799.75L401.486 761.187C401.488 755.508 400.799 748.81 401.82 743.25Z"/>
	<path fill="#02B6CE" transform="matrix(0.34082 0 0 0.34082 -3.05176e-05 0)" d="M596.105 743.75L597.25 744.114L621.32 799.544L616.161 799.778L609.085 782.162L597.25 782.223L583.956 782.336L575.75 799.837C574.246 799.84 573.351 800.065 572.062 799.25C576.015 786.142 582.901 773.025 588.714 760.616L596.105 743.75Z"/>
	<path transform="matrix(0.34082 0 0 0.34082 -3.05176e-05 0)" d="M596.095 754.75L596.964 754.823C601.155 761.72 604.032 770.474 607.281 777.901L598.625 777.923L585.981 777.965L596.095 754.75Z"/>
	<path fill="#04F5FA" transform="matrix(0.34082 0 0 0.34082 -3.05176e-05 0)" d="M451.45 626.168L481.596 626.086L481.776 657.236L451.438 657.113L451.45 626.168Z"/>
	<path fill="#04F5FA" transform="matrix(0.34082 0 0 0.34082 -3.05176e-05 0)" d="M451.526 664.575L481.761 664.535L481.808 696.108L451.521 696.073L451.526 664.575Z"/>
	<path fill="#04F5FA" transform="matrix(0.34082 0 0 0.34082 -3.05176e-05 0)" d="M412.97 625.979L443.818 626.092L443.901 656.992L412.983 657.011L412.97 625.979Z"/>
	<path fill="#04F5FA" transform="matrix(0.34082 0 0 0.34082 -3.05176e-05 0)" d="M412.849 664.521L443.868 664.516L443.848 696.038L412.877 696.075L412.849 664.521Z"/>
	<path fill="#02B6CE" transform="matrix(0.34082 0 0 0.34082 -3.05176e-05 0)" d="M514.68 744.368L535.25 744.543C539.985 744.998 544.389 747.4 547.25 751.191C549.643 754.362 550.149 759.309 549.299 763.128C548.529 766.588 545.937 768.867 542.995 770.494L542.463 770.782C546.25 773.324 549.572 775.436 551.283 779.896C552.87 784.033 551.898 787.907 550.148 791.766L547.873 794.582C540.376 802.172 524.86 799.722 515.008 799.579L514.68 744.368Z"/>
	<path transform="matrix(0.34082 0 0 0.34082 -3.05176e-05 0)" d="M519.562 748.613C525.189 748.588 535.2 747.346 540 750.511C542.462 752.133 544.406 754.535 544.887 757.5C545.506 761.321 544.918 763.12 542.664 766.131C536.469 770.008 526.735 768.664 519.6 768.717L519.562 748.613Z"/>
	<path transform="matrix(0.34082 0 0 0.34082 -3.05176e-05 0)" d="M519.624 773.09C525.603 773.05 533.954 772.105 539.575 774.209L540.25 774.481C541.49 774.964 542.501 775.42 543.528 776.297C545.762 778.205 547.176 780.78 547.342 783.75C547.534 787.17 545.569 789.639 543.383 792.007C536.287 796.741 527.955 795.512 519.798 795.49L519.624 773.09Z"/>
	<path fill="#02B6CE" transform="matrix(0.34082 0 0 0.34082 -3.05176e-05 0)" d="M363.143 743.644C368.607 743.512 373.881 744.741 378.568 747.663C384.929 751.627 390.248 758.944 391.845 766.25C393.445 773.571 391.523 782.052 387.515 788.294C382.859 795.545 376.805 799.234 368.462 800.992C361.699 801.587 356.137 800.912 350.373 797.071C343.714 792.634 339.145 784.824 337.763 777.023C336.441 769.561 338.545 761.698 342.93 755.601C347.947 748.626 354.74 745.013 363.143 743.644Z"/>
	<path transform="matrix(0.34082 0 0 0.34082 -3.05176e-05 0)" d="M363.436 749.157C367.676 748.809 371.202 749.657 374.922 751.718C380.549 754.838 385.072 760.512 386.601 766.75C388.18 773.192 386.434 780.363 382.924 785.856C378.869 792.202 374.19 794.569 366.992 796.045C361.585 796.129 357.357 795.76 352.75 792.537C347.515 788.874 343.907 782.726 342.792 776.449C341.705 770.333 342.922 764.374 346.534 759.3C350.685 753.469 356.431 750.286 363.436 749.157Z"/>
	<path fill="#FEFEFE" transform="matrix(0.34082 0 0 0.34082 -3.05176e-05 0)" d="M769.229 278.585C772.535 281.173 775.57 284.827 778.435 287.908L792.375 302.701L852.733 365.946L832.185 365.987L768.891 300.38L706.539 365.851C704.547 366.388 701.788 366.045 699.704 366.035L685.421 365.945L769.229 278.585Z"/>
	<defs>
		<linearGradient id="gradient_0" gradientUnits="userSpaceOnUse" x1="256.13959" y1="653.09491" x2="660.87976" y2="616.53052">
			<stop offset="0" stop-color="#02AEB7"/>
			<stop offset="1" stop-color="#00D3D5"/>
		</linearGradient>
	</defs>
	<path fill="url(#gradient_0)" transform="matrix(0.34082 0 0 0.34082 -3.05176e-05 0)" d="M510.157 516.75L511.275 516.392C516.118 519.185 520.811 523.642 525.142 527.183L547.817 545.408L663.956 639.284L664.438 730.55L555.548 730.117L555.52 568.544L511.053 532.79L460.091 572.604L323.16 679.246L287.92 706.57C279.533 713.094 271.02 720.467 261.718 725.638L261.436 711.045L510.157 516.75Z"/>
	<path fill="#FE0052" transform="matrix(0.34082 0 0 0.34082 -3.05176e-05 0)" d="M510.999 327.069C493.267 328.085 476.819 333.54 461.827 343.118C432.058 362.136 408.229 388.93 385.244 415.358L324.786 488.618L300.414 518.465L225.975 606.499C178.012 658.212 118.033 703.904 50.248 725.602L29.0515 731.872C26.2927 732.594 23.3473 733.666 20.4909 733.774C45.9626 722.277 70.187 709.763 92.2064 692.337C112.715 676.106 130.828 657.536 148.531 638.37C191.394 591.964 229.079 540.727 266.956 490.232L329.529 409.439C360.911 370 393.377 331.486 429.23 296.003C449.168 276.272 469.812 257.988 492.129 240.965C498.289 236.266 504.63 230.767 511.371 226.958L510.999 327.069Z"/>
	<defs>
		<linearGradient id="gradient_1" gradientUnits="userSpaceOnUse" x1="111.47047" y1="690.91864" x2="849.81305" y2="534.38202">
			<stop offset="0" stop-color="#002630"/>
			<stop offset="1" stop-color="#02FFFF"/>
		</linearGradient>
	</defs>
	<path fill="url(#gradient_1)" transform="matrix(0.34082 0 0 0.34082 -3.05176e-05 0)" d="M484.116 441.183L501.26 426.321C504.155 423.779 508.191 419.413 511.644 417.917L567.378 465.884L610.672 503.325L708.249 586.46L781.952 647.151C815.271 673.215 851.073 698.584 890.159 715.33C854.602 710.388 819.84 698.8 786.819 684.987C754.569 671.495 723.052 655.442 694.238 635.517C670.686 619.231 648.999 600.211 626.671 582.308L580.916 545.151L552.99 522.366L511.239 488.005C508.236 489.761 505.392 492.487 502.661 494.669L481.728 511.413L481.368 511.898C479.016 514.358 475.681 516.577 473.014 518.731L453.665 534.205L393 582.506L340.024 624.416C308.017 649.749 275.782 674.72 238.003 691.01C206.211 704.717 172.448 711.195 138.25 715.233L116.021 717.733C121.822 715.192 128.111 713.524 134.029 711.187C145.549 706.639 156.714 701.042 167.486 694.937C201.342 675.746 232.102 652.196 262.363 627.854L323.125 578.057L484.116 441.183Z"/>
	<path fill="#E75B7D" transform="matrix(0.34082 0 0 0.34082 -3.05176e-05 0)" d="M511.371 226.958C513.284 226.626 515.643 228.847 517.236 229.966C531.466 239.962 544.76 251.358 557.866 262.759C602.663 301.728 642.176 345.265 681.267 389.826L713.383 427.644C719.874 435.478 726.755 443.213 732.379 451.695L732.388 374.856L732.455 361.077C732.461 359.88 732.19 357.18 732.631 356.128C733.31 354.507 737.026 351.431 738.338 350.049L768.346 319.476C768.959 318.876 768.758 319.071 769.594 318.525C778.13 328.877 788.033 338.328 797.208 348.125C798.76 349.782 802.516 352.859 803.431 354.793C803.853 355.684 803.432 359.475 803.432 360.776L803.434 383.566L803.397 518.633L803.377 541.732C803.375 543.22 802.889 547.057 803.367 548.334C804.138 550.396 807.531 553.758 808.954 555.608L832.313 585.466L871.137 631.453C900.74 665.093 934.254 699.006 973.716 720.989C986.708 728.226 1000.05 733.299 1013.99 738.382C1010.8 738.372 1007 737.025 1003.91 736.226L980.828 729.459C911.717 706.532 853.972 662.979 803.138 611.808C764.331 572.744 730.088 529.063 695.88 486.004L626.812 402.555C607.579 381.306 586.716 359.696 562.537 344.067C546.298 333.57 530.255 328.1 510.999 327.069L511.371 226.958Z"/>
</svg>
